<svg xmlns="http://www.w3.org/2000/svg" xmlns:se="http://svg-edit.googlecode.com" xmlns:xlink="http://www.w3.org/1999/xlink" xmlns:dc="http://purl.org/dc/elements/1.1/" xmlns:cc="http://creativecommons.org/ns#" xmlns:rdf="http://www.w3.org/1999/02/22-rdf-syntax-ns#" xmlns:inkscape="http://www.inkscape.org/namespaces/inkscape" width="655" height="971" style="">                                    <title>my vector image</title>                                    <!-- Created with Vector Paint - http://www.vectorpaint.yaks.com/ https://chrome.google.com/webstore/detail/hnbpdiengicdefcjecjbnjnoifekhgdo -->                                    <rect id="backgroundrect" width="100%" height="100%" x="0" y="0" fill="#FFFFFF" stroke="none" class="" style=""/>                                <g class="currentLayer" style=""><title>Layer 1</title><g class=""><rect fill="#484848" stroke="#222222" stroke-width="10" stroke-linejoin="round" stroke-dashoffset="" fill-rule="nonzero" id="svg_8" x="22.01200632614291" y="654.138720185398" width="595.6999212012424" height="150.60403092640558" style="color: rgb(0, 0, 0);" class="" fill-opacity="1"/><rect fill="#484848" stroke="#222222" stroke-width="10" stroke-linejoin="round" stroke-dashoffset="" fill-rule="nonzero" id="svg_2" x="273.77432868140244" y="59.32886066797796" width="131.3841627591655" height="180.2684612603946" style="color: rgb(0, 0, 0);" class="" fill-opacity="1"/><rect fill="#6d6d6d" stroke="#222222" stroke-width="10" stroke-linejoin="round" stroke-dashoffset="" fill-rule="nonzero" id="svg_1" x="2.7515007907678637" y="130.8277440370796" width="437.4886257320903" height="632.8411804584316" style="color: rgb(0, 0, 0);" class="" rx="40" ry="40" fill-opacity="1"/><rect fill="#ffffff" stroke="#222222" stroke-width="10" stroke-linejoin="round" stroke-dashoffset="" fill-rule="nonzero" id="svg_3" x="35.76951027998223" y="169.61969139691135" width="365.26172997443393" height="543.0872630376444" style="color: rgb(0, 0, 0);" class=""/><rect fill="#6d6d6d" stroke="#222222" stroke-width="10" stroke-linejoin="round" stroke-dashoffset="" fill-rule="nonzero" id="svg_5" x="130.00841236378156" y="0" width="426.4826225690189" height="106.48769863483224" style="color: rgb(0, 0, 0);" class="" fill-opacity="1"/><rect fill="#484848" stroke="#222222" stroke-width="10" stroke-linejoin="round" stroke-dashoffset="" fill-rule="nonzero" id="svg_7" x="145.82954191069678" y="12.930649119943915" width="392.77673788211257" height="78.34452113848371" style="color: rgb(0, 0, 0);" class="" fill-opacity="1"/><path fill="#ffffff" fill-opacity="1" stroke="#222222" stroke-opacity="1" stroke-width="10" stroke-dasharray="none" stroke-linejoin="round" stroke-linecap="butt" stroke-dashoffset="" fill-rule="nonzero" opacity="1" marker-start="" marker-mid="" marker-end="" id="svg_10" d="M501.8540313044041,513.2054017068646 " style="color: rgb(0, 0, 0);" class=""/><path fill="#6d6d6d" stroke="#222222" stroke-width="10" stroke-linejoin="round" stroke-dashoffset="" fill-rule="nonzero" marker-start="" marker-mid="" marker-end="" id="svg_12" d="M504.47648865587865,574.2440455481933 L619.7753063585309,574.2440455481933 L619.7753063585309,574.2440455481933 C627.4203512306707,574.2440455481933 634.7522335753189,577.602208671385 640.1580726459982,583.5797878038874 C645.5639117166584,589.5573669364222 648.6008900466433,597.6647048272354 648.6008900466433,606.1182746754471 L648.6008900466433,765.4856083010598 C648.6008900466433,765.4864682495792 648.6002168159772,765.487193430032 648.5994391184935,765.487193430032 L475.65091077147093,765.4856083010598 L475.65091077147093,765.4856083010598 C475.6501214665667,765.4856083010598 475.64945984333843,765.4849023731979 475.64945984333843,765.4840039195177 L475.65091077147093,606.1182810929502 L475.65091077147093,606.1182810929502 C475.65091077147093,588.514628022759 488.55654519937383,574.2440519657049 504.47648865587865,574.2440519657049 L504.47648865587865,574.2440455481933 z" style="color: rgb(0, 0, 0);" class="" fill-opacity="1"/><rect fill="#6d6d6d" stroke="#222222" stroke-width="10" stroke-linejoin="round" stroke-dashoffset="" fill-rule="nonzero" id="svg_13" x="0" y="804.0907590814136" width="654.8571882027516" height="167.33781214045067" style="color: rgb(0, 0, 0);" class="" fill-opacity="1"/><rect fill="#484848" stroke="#222222" stroke-width="10" stroke-linejoin="round" stroke-dashoffset="" fill-rule="nonzero" id="svg_16" x="503.4263768719923" y="584.9217160727571" width="119.69028439840207" height="17.494407632865297" style="color: rgb(0, 0, 0);" class="" fill-opacity="1"/><rect fill="#6d6d6d" stroke="#222222" stroke-width="10" stroke-linejoin="round" stroke-dashoffset="" fill-rule="nonzero" id="svg_19" x="24.075631919218807" y="832.8859286081522" width="538.6062797928093" height="112.57270998539408" style="color: rgb(0, 0, 0);" class="" fill-opacity="1"/><rect fill="#b6b6b6" stroke="#222222" stroke-width="10" stroke-linejoin="round" stroke-dashoffset="" fill-rule="nonzero" id="svg_21" x="216.68068727296927" y="867.1141174550626" width="149.2689178991566" height="19.776286889325988" style="color: rgb(0, 0, 0);" class="" fill-opacity="1"/><rect fill="#d50b0b" stroke="#222222" stroke-width="5" stroke-linejoin="round" stroke-dashoffset="" fill-rule="nonzero" id="svg_23" x="574.3757900727916" y="835.1678078646129" width="66.7238941761207" height="28.14317749634852" style="color: rgb(0, 0, 0);" class="" fill-opacity="1"/><path fill="#6d6d6d" stroke="#484848" stroke-width="5" stroke-linejoin="round" stroke-dashoffset="" fill-rule="nonzero" marker-start="" marker-mid="" marker-end="" id="svg_25" d="M626.0565656011391,907.5633793924444 L632.3592203642968,903.877920654703 C632.235343484454,902.5118390131 631.9959597843042,901.1864806724301 631.6963116560853,899.885186100551 L624.6955939351262,898.8134228613995 C624.0896016312213,897.1992992957946 623.2894239481105,895.701792455614 622.3486292663342,894.3283065774338 L625.0170042178772,887.0703037091853 C624.1398219878738,886.1244124912994 623.1923312585685,885.2618189343408 622.1946201725489,884.467714565429 L616.2502039537363,888.5937253772859 C614.8557520499569,887.7829614761599 613.35416338522,887.1684098434058 611.7772441855336,886.7722831884798 L609.629486931593,879.4124720678972 C609.0201466039216,879.3624934711887 608.4108062761894,879.3088127562955 607.7897478652816,879.3088127562955 S606.5610231385856,879.3606424120616 605.950008798972,879.4124720678972 L603.8223396876796,886.7074961187543 C602.2035701907516,887.0906653597212 600.6685012882456,887.7126212291214 599.2388951348155,888.5326404258831 L593.386549569958,884.467714565429 C592.3905124957605,885.2618189343408 591.4430217664549,886.1244124912994 590.5658395365137,887.0703037091853 L593.1605579648667,894.1265411316816 C592.1494547837285,895.5611119613329 591.3024047677281,897.1419164626471 590.6662802498797,898.8467419258947 L583.8865320982435,899.8833350414246 C583.5885579819686,901.1846296133034 583.3475002698757,902.508136894845 583.2252974019765,903.8760695955766 L589.3103306195156,907.4356563121228 C589.3789651069976,909.3107792158216 589.6601991043887,911.1266682272445 590.1573806355156,912.8370468679402 L585.5672400351225,918.4494581651502 C586.1012498277828,919.6730082534807 586.695524048453,920.8613882181243 587.3835429349576,921.9757258172679 L594.1415289320023,920.3708575472998 C595.2497248026818,921.7036201244778 596.5119297672085,922.8716384386519 597.9047076591067,923.8378913071462 L597.6485838400712,931.484616593672 C598.7584537226356,932.0380832750257 599.911847914321,932.5008480587351 601.1003963557188,932.8710598857448 L605.3758227209523,926.7940327456321 C606.1341501067595,926.901394175486 606.9025215639855,926.9735854817214 607.6859591281499,926.9735854817214 C608.5346831560313,926.9735854817214 609.3649930530862,926.8884367615269 610.1819108550807,926.7644157995289 L614.4790993748455,932.8747620039996 C615.6693218281262,932.5045501769895 616.8210420079299,932.041785393279 617.9309118905546,931.488318711928 L617.6697660358114,923.7046150493737 C618.9972574640542,922.755021713095 620.200872012393,921.618471404285 621.2621955501858,920.3338363645518 L628.1959527956069,921.979427935591 C628.8839716821119,920.8650903363765 629.4782459027805,919.678561430862 630.0122556955035,918.4531602834039 L625.2731280369112,912.6574941318535 C625.7284592708593,911.0378173887999 625.9829090780106,909.327438748103 626.0565656011391,907.5633793924444 zM615.5822732098783,916.4169952350242 L612.5941619875288,918.5679259498345 L610.7560969331003,915.4451891890833 C609.8002361443222,915.8524221987717 608.770718832417,916.0986130637815 607.6859591281499,916.0986130637815 C602.9468314696201,916.0986130637815 599.1066481955634,911.8504323490496 599.1066481955634,906.6119349971086 C599.1066481955634,901.3715865859695 602.9468314696201,897.1252569303655 607.6859591281499,897.1252569303655 C612.423412774799,897.1252569303655 616.2652700607385,901.3715865859695 616.2652700607385,906.6119349971086 C616.2652700607385,909.2293326138839 615.3060612481961,911.5968372475337 613.7559262386876,913.3146201248065 L615.5822732098783,916.4169952350242 z" style="color: rgb(0, 0, 0);" class="" fill-opacity="1" stroke-opacity="1"/><path fill="#6d6d6d" stroke="#484848" stroke-width="5" stroke-linejoin="round" stroke-dashoffset="" fill-rule="nonzero" marker-start="" marker-mid="" marker-end="" id="svg_20" d="M576.2224029027794,670.3236346019133 L566.3494923753933,668.3901661460948 L569.986882152707,666.2899735089932 C571.9874374902752,665.1348478889732 573.8013412058586,664.0166108606466 574.0177663379434,663.8050012600979 C574.5553750327235,663.2793742981833 567.8602632655468,651.8393191445971 567.0205948747803,651.8487895811269 C566.6514879168968,651.8534167777091 564.0794882295318,656.2832271654871 561.3050490863318,661.6938678020587 C558.5105325075737,667.1435800352458 555.7293658925062,671.2939528918477 555.0695225040312,670.9990859978145 C547.2598637360584,667.5095703267856 540.8877726825439,663.9789483824084 540.8877726825439,663.1413419603589 C540.8877726825439,662.5692140909969 543.33811506652,657.4655710200078 546.3330094094719,651.7999025235213 L551.7782490525287,641.4987052500055 L566.6248813051318,641.4987052500055 L581.4715135577419,641.4987052500055 L585.3468960362508,648.2761584957856 L589.2223105919988,655.0536117415622 L593.2652179096698,652.7601151450856 C596.0678471138009,651.1701878221078 597.1350131163475,650.9418848440034 596.7437728634966,652.0157910717329 C593.2990885580247,661.4722266972327 588.159075509287,672.4985975768069 587.2454136763052,672.3916367835152 C586.6128534377341,672.3176403322566 581.6525108373165,671.3870256462889 576.2224058188931,670.3236378264326 L576.2224029027794,670.3236346019133 zM530.1765235117551,712.512836394569 C526.419313582023,705.3583133816588 523.0519820805447,698.6596256629248 522.6935976688477,697.6268192594713 C522.3257942133155,696.567010664862 523.3973956232003,692.7799614157328 525.1537381913057,688.9327328146245 L528.2655044968034,682.1163530759127 L525.0845009288072,680.0385354333814 C520.8512414421991,677.2734194818604 522.4247758247815,676.4217831417427 533.6544135919063,675.40027225722 L542.5294916109593,674.5929634931784 L546.0107118917481,684.7639801527037 C547.9254110408602,690.358035123562 549.7369352085303,695.6574360191727 550.0363645708987,696.5404953773083 C550.3486364933653,697.4614268079322 548.8541375117676,696.8486827933946 546.5314829521202,695.1034751363403 L542.4822039283266,692.0608821661963 L539.6554963821005,698.0945756308794 C538.100835080541,701.4131623371021 536.8067459403896,704.4981126971633 536.7797893951126,704.9500205171805 C536.7527686953555,705.4019283371834 541.5243017504207,705.9190715679115 547.3831103208346,706.0991904353831 L558.035462764548,706.4266669734607 L558.730634857702,715.0428294928781 C559.1129955475532,719.7817462870377 559.3468036271064,723.722331400991 559.2502598858099,723.7996974832107 C559.1537219767383,723.8769861767719 554.1096840273342,724.2960005943448 548.0413002734349,724.7307345822264 L537.00785564887,725.5211307008786 L530.1765235117551,712.5128267209917 L530.1765235117551,712.512836394569 zM572.225363120882,725.1540988870642 C565.7752514735756,714.3891339823132 565.6631386068755,715.1898550372016 575.2500368061591,703.5537550760699 L581.4041746845696,696.0841635059128 L580.750551364365,701.5427109437559 L580.0968988830357,707.0012616061524 L586.9933069899093,707.0012616061524 C590.7863238667941,707.0012616061524 593.8897500901364,706.6658495064964 593.8897500901364,706.2559540519807 C593.8897500901364,705.8459908824051 591.785238252927,701.2416013649714 589.2130781793695,696.0238454992256 C586.6409181058096,690.8060896335165 584.5461723298442,686.0995083985805 584.5580671533161,685.5647689226666 C584.5847729129082,684.3657316906064 598.06769675211,674.4646756766703 598.7086758078852,675.1734364390276 C598.9626517224875,675.454276639554 601.4648075959117,680.4561439570668 604.2690289975467,686.2888139441637 L609.367679904539,696.8935101711926 L602.5073032854988,709.1297107755028 C598.7340401556633,715.8595377538668 595.1087697425017,722.022283248006 594.4511863413246,722.8246165665236 C593.7935271212314,723.6269498850279 590.1162770001878,724.6075737640604 586.2794863564077,725.0037101608058 C578.9559960561799,725.7599520868619 579.1553590131801,725.5778049917653 578.0815676026989,732.4929423264444 C577.8936562200495,733.7031331982463 575.702427941154,730.9571677140286 572.225363120882,725.1540924380093 L572.225363120882,725.1540988870642 z" style="color: rgb(0, 0, 0);" class="" stroke-opacity="1" filter="" opacity="1"/></g></g><defs><filter id="f205" inkscape:label="Clean edges" inkscape:menu="ABCs" inkscape:menu-tooltip="Removes or decreases glows and jaggeries around objects edges after applying some filters" height="1" width="1" y="0" x="0" color-interpolation-filters="sRGB">
            <feGaussianBlur result="result6" stdDeviation=".4"/>
            <feComposite in2="result6" operator="in" in="SourceGraphic" result="result7"/>
            <feComposite operator="in" in2="result7" result="result8" in="result7"/>
        </filter></defs></svg>